<svg width="406" height="65" viewBox="0 0 406 69" fill="none" xmlns="http://www.w3.org/2000/svg">
<path d="M1.0752 29.1284L36.6989 0.999962" stroke="black" stroke-width="1.7" stroke-linecap="round"/>
<path d="M36.6982 1.00037L47.3773 9.26064" stroke="black" stroke-width="1.7" stroke-linecap="round"/>
<path d="M47.3779 8.95483V2.68315" stroke="black" stroke-width="1.7" stroke-linecap="round"/>
<path d="M1 29.1465H10.7637" stroke="black" stroke-width="1.7" stroke-linecap="round"/>
<path d="M10.7637 29.1465L10.7637 68.0004" stroke="black" stroke-width="1.7" stroke-linecap="round"/>
<path d="M92.168 61.832C86.7493 61.832 82.6107 59.6347 79.752 55.24C79.4107 54.6427 79.24 54.088 79.24 53.576C79.24 53.2347 79.3893 52.808 79.688 52.296C80.0293 51.7413 80.6267 51.464 81.48 51.464C82.248 51.464 82.9947 51.912 83.72 52.808C84.7013 54.3013 85.8533 55.5387 87.176 56.52C88.4987 57.5013 90.1627 57.992 92.168 57.992C95.1973 57.992 97.608 57.032 99.4 55.112C101.192 53.1493 102.088 50.6533 102.088 47.624C102.088 44.8507 101.171 42.5253 99.336 40.648C97.544 38.7707 95.24 37.832 92.424 37.832H91.72C88.6053 37.832 85.9173 36.7227 83.656 34.504C81.3947 32.2853 80.264 29.32 80.264 25.608C80.264 22.28 81.3733 19.4427 83.592 17.096C85.8107 14.7067 88.6693 13.512 92.168 13.512C96.8613 13.512 100.403 15.432 102.792 19.272C103.005 19.7413 103.112 20.1467 103.112 20.488C103.112 20.8293 102.941 21.2347 102.6 21.704C102.301 22.1733 101.704 22.408 100.808 22.408C100.253 22.408 99.7413 22.152 99.272 21.64C98.2053 20.3173 97.1387 19.272 96.072 18.504C95.048 17.736 93.7467 17.352 92.168 17.352C89.736 17.352 87.7733 18.1627 86.28 19.784C84.8293 21.4053 84.104 23.3467 84.104 25.608C84.104 26.888 84.36 28.1893 84.872 29.512C85.384 30.8347 86.1947 31.9013 87.304 32.712C88.456 33.5227 89.9493 33.928 91.784 33.928H92.488C94.28 33.928 96.2 34.3973 98.248 35.336C100.296 36.232 102.088 37.704 103.624 39.752C105.203 41.8 105.992 44.424 105.992 47.624C105.992 51.72 104.712 55.112 102.152 57.8C99.592 60.488 96.264 61.832 92.168 61.832ZM118.106 61C117.509 61 117.018 60.808 116.634 60.424C116.25 60.04 116.058 59.5707 116.058 59.016V35.208C116.058 34.696 115.823 34.44 115.354 34.44H112.282C111.727 34.44 111.258 34.248 110.874 33.864C110.49 33.48 110.298 32.9893 110.298 32.392C110.298 31.7947 110.49 31.304 110.874 30.92C111.258 30.536 111.727 30.344 112.282 30.344H115.29C115.802 30.344 116.058 30.0027 116.058 29.32V16.264C116.058 15.7093 116.25 15.24 116.634 14.856C117.018 14.472 117.509 14.28 118.106 14.28C118.703 14.28 119.194 14.472 119.578 14.856C119.962 15.24 120.154 15.7093 120.154 16.264V29.512C120.154 30.024 120.41 30.3013 120.922 30.344H123.93C124.485 30.344 124.954 30.536 125.338 30.92C125.722 31.304 125.914 31.7947 125.914 32.392C125.914 32.9893 125.722 33.48 125.338 33.864C124.954 34.248 124.485 34.44 123.93 34.44H121.818C120.965 34.44 120.474 34.4827 120.346 34.568C120.218 34.6533 120.154 34.8453 120.154 35.144V59.016C120.154 59.5707 119.962 60.04 119.578 60.424C119.194 60.808 118.703 61 118.106 61ZM143.938 61.832C142.018 61.832 140.055 61.4693 138.05 60.744C136.087 59.976 134.444 58.6533 133.122 56.776C131.799 54.8987 131.138 52.3173 131.138 49.032V32.328C131.138 31.7733 131.33 31.304 131.714 30.92C132.098 30.536 132.61 30.344 133.25 30.344C133.847 30.344 134.338 30.536 134.722 30.92C135.106 31.304 135.298 31.7733 135.298 32.328V48.776C135.298 50.8667 135.703 52.5947 136.514 53.96C137.367 55.3253 138.455 56.3493 139.778 57.032C141.1 57.672 142.487 57.992 143.938 57.992C145.431 57.992 146.839 57.672 148.162 57.032C149.484 56.3493 150.551 55.3253 151.362 53.96C152.172 52.5947 152.578 50.8667 152.578 48.776V32.328C152.578 31.7733 152.77 31.304 153.154 30.92C153.538 30.536 154.028 30.344 154.626 30.344C155.223 30.344 155.714 30.536 156.098 30.92C156.482 31.304 156.674 31.7733 156.674 32.328V49.032C156.674 52.3173 156.012 54.8987 154.69 56.776C153.367 58.6533 151.724 59.976 149.762 60.744C147.842 61.4693 145.9 61.832 143.938 61.832ZM178.051 61.832C173.656 61.832 169.859 60.2533 166.659 57.096C163.502 53.9387 161.923 50.12 161.923 45.64C161.923 41.16 163.502 37.3627 166.659 34.248C169.859 31.1333 173.656 29.576 178.051 29.576C182.488 29.576 186.158 31.304 189.059 34.76C189.144 34.888 189.251 34.952 189.379 34.952H189.635C189.72 34.952 189.763 34.824 189.763 34.568V16.2C189.763 15.688 189.955 15.24 190.339 14.856C190.723 14.472 191.192 14.28 191.747 14.28C192.43 14.28 192.963 14.472 193.347 14.856C193.731 15.24 193.923 15.688 193.923 16.2V59.08C193.923 59.6347 193.731 60.104 193.347 60.488C192.963 60.8293 192.515 61 192.003 61C191.278 61 190.723 60.8293 190.339 60.488C189.955 60.104 189.763 59.6347 189.763 59.08V56.648C189.763 56.392 189.72 56.264 189.635 56.264C189.592 56.264 189.55 56.264 189.507 56.264C189.464 56.264 189.4 56.3067 189.315 56.392C186.115 60.0187 182.36 61.832 178.051 61.832ZM178.051 57.992C181.379 57.992 184.216 56.776 186.563 54.344C188.91 51.8693 190.083 48.968 190.083 45.64C190.083 42.312 188.91 39.4533 186.563 37.064C184.216 34.632 181.379 33.416 178.051 33.416C174.723 33.416 171.886 34.632 169.539 37.064C167.192 39.4533 166.019 42.312 166.019 45.64C166.019 48.968 167.192 51.8693 169.539 54.344C171.886 56.776 174.723 57.992 178.051 57.992ZM205.637 67.592H203.973C203.333 67.592 203.013 67.336 203.013 66.824C203.013 66.6107 203.056 66.3973 203.141 66.184L208.005 56.008C208.304 55.4533 208.453 54.984 208.453 54.6C208.453 54.2587 208.304 53.8107 208.005 53.256L197.893 31.688L197.829 31.176C197.829 30.6213 198.149 30.344 198.789 30.344H200.453C200.88 30.344 201.285 30.472 201.669 30.728C202.096 30.984 202.416 31.304 202.629 31.688L210.501 50.44C210.714 50.9093 210.864 51.144 210.949 51.144C211.034 51.144 211.162 50.9307 211.333 50.504C211.418 50.376 214.085 44.104 219.333 31.688C219.546 31.304 219.845 30.984 220.229 30.728C220.656 30.472 221.082 30.344 221.509 30.344H223.173C223.813 30.344 224.133 30.6 224.133 31.112L224.069 31.688L207.813 66.184C207.642 66.568 207.344 66.888 206.917 67.144C206.533 67.4427 206.106 67.592 205.637 67.592ZM283.24 61.832C278.76 61.832 274.941 60.2533 271.784 57.096C268.627 53.9387 267.048 50.12 267.048 45.64C267.048 41.16 268.627 37.3627 271.784 34.248C274.941 31.1333 278.76 29.576 283.24 29.576C287.72 29.576 291.539 31.1333 294.696 34.248C296.957 36.5093 298.301 39.24 298.728 42.44L298.792 42.888C298.792 43.272 298.685 43.72 298.472 44.232C298.259 44.744 297.704 45 296.808 45H272.296C271.869 45 271.592 45.0853 271.464 45.256C271.336 45.384 271.272 45.5973 271.272 45.896V46.216C271.528 49.416 272.701 52.04 274.792 54.088C277.395 56.6907 280.211 57.992 283.24 57.992C284.861 57.992 286.419 57.6507 287.912 56.968C289.448 56.2427 290.6 55.4107 291.368 54.472C292.392 53.192 293.245 52.552 293.928 52.552C294.312 52.552 294.739 52.68 295.208 52.936C295.805 53.4053 296.104 53.96 296.104 54.6C296.104 55.1547 295.891 55.688 295.464 56.2C292.264 59.9547 288.189 61.832 283.24 61.832ZM293.096 40.904C293.736 40.904 294.056 40.776 294.056 40.52C294.056 40.3067 293.928 40.0507 293.672 39.752V39.688C293.245 38.8347 292.584 38.0027 291.688 37.192C289.341 34.6747 286.525 33.416 283.24 33.416C279.912 33.416 277.075 34.6747 274.728 37.192C273.747 38.216 273 39.1547 272.488 40.008C272.36 40.264 272.296 40.456 272.296 40.584C272.296 40.6693 272.339 40.7547 272.424 40.84C272.552 40.8827 279.443 40.904 293.096 40.904ZM327.953 61C327.356 61 326.865 60.808 326.481 60.424C326.097 60.04 325.905 59.5707 325.905 59.016V42.504C325.905 40.3707 325.436 38.6427 324.497 37.32C323.601 35.9973 322.449 35.016 321.041 34.376C319.633 33.736 318.182 33.416 316.689 33.416C310.929 33.416 308.049 36.0187 308.049 41.224V59.016C308.049 59.5707 307.857 60.04 307.473 60.424C307.089 60.808 306.598 61 306.001 61C305.361 61 304.849 60.808 304.465 60.424C304.081 60.04 303.889 59.5707 303.889 59.016L303.825 32.264C303.825 31.7093 304.017 31.2613 304.401 30.92C304.785 30.536 305.254 30.344 305.809 30.344C306.449 30.344 306.961 30.5147 307.345 30.856C307.772 31.1973 307.985 31.6667 307.985 32.264V32.456C307.985 32.6267 308.092 32.712 308.305 32.712C308.39 32.712 308.454 32.6907 308.497 32.648C310.46 30.6 313.19 29.576 316.689 29.576C318.652 29.576 320.657 29.9387 322.705 30.664C324.753 31.3893 326.481 32.6693 327.889 34.504C329.297 36.3387 330.001 38.92 330.001 42.248V59.016C330.001 59.5707 329.809 60.04 329.425 60.424C329.041 60.808 328.55 61 327.953 61ZM334.02 68.168H333.764C332.91 68.168 332.291 67.8267 331.907 67.144C331.737 66.7173 331.651 66.3333 331.651 65.992C331.651 65.608 331.779 65.2027 332.035 64.776C332.291 64.392 332.633 64.1573 333.059 64.072C333.785 63.9013 334.382 63.624 334.852 63.24C335.79 62.344 336.366 61.4053 336.58 60.424C336.836 59.4 336.964 58.4827 336.964 57.672V32.328C336.964 31.7733 337.156 31.304 337.54 30.92C337.924 30.536 338.414 30.344 339.012 30.344C339.609 30.344 340.1 30.536 340.484 30.92C340.868 31.304 341.06 31.7733 341.06 32.328V56.584C341.06 58.632 340.782 60.5093 340.228 62.216C339.716 63.9227 338.564 65.544 336.772 67.08C335.918 67.7627 335.001 68.1253 334.02 68.168ZM362.489 61.832C358.051 61.832 354.254 60.2533 351.097 57.096C347.939 53.9387 346.361 50.1413 346.361 45.704C346.361 41.2667 347.939 37.4693 351.097 34.312C354.254 31.1547 358.051 29.576 362.489 29.576C366.969 29.576 370.787 31.1547 373.945 34.312C377.102 37.4693 378.681 41.2667 378.681 45.704C378.681 50.1413 377.102 53.9387 373.945 57.096C370.787 60.2533 366.969 61.832 362.489 61.832ZM362.489 57.992C365.817 57.992 368.654 56.776 371.001 54.344C373.347 51.912 374.521 49.032 374.521 45.704C374.521 42.376 373.347 39.496 371.001 37.064C368.654 34.632 365.817 33.416 362.489 33.416C359.203 33.416 356.366 34.632 353.977 37.064C351.63 39.496 350.457 42.376 350.457 45.704C350.457 49.032 351.63 51.912 353.977 54.344C356.366 56.776 359.203 57.992 362.489 57.992ZM387.325 67.592H385.661C385.021 67.592 384.701 67.336 384.701 66.824C384.701 66.6107 384.743 66.3973 384.829 66.184L389.693 56.008C389.991 55.4533 390.141 54.984 390.141 54.6C390.141 54.2587 389.991 53.8107 389.693 53.256L379.581 31.688L379.517 31.176C379.517 30.6213 379.837 30.344 380.477 30.344H382.141C382.567 30.344 382.973 30.472 383.357 30.728C383.783 30.984 384.103 31.304 384.317 31.688L392.189 50.44C392.402 50.9093 392.551 51.144 392.637 51.144C392.722 51.144 392.85 50.9307 393.021 50.504C393.106 50.376 395.773 44.104 401.021 31.688C401.234 31.304 401.533 30.984 401.917 30.728C402.343 30.472 402.77 30.344 403.197 30.344H404.861C405.501 30.344 405.821 30.6 405.821 31.112L405.757 31.688L389.501 66.184C389.33 66.568 389.031 66.888 388.605 67.144C388.221 67.4427 387.794 67.592 387.325 67.592Z" fill="black"/>
<path d="M242.797 61.832C238.231 61.832 234.455 60.552 231.469 57.992C228.525 55.3893 227.053 51.8053 227.053 47.24C227.053 44.936 227.479 43.0373 228.333 41.544C229.229 40.008 230.295 38.7493 231.533 37.768C232.77 36.744 233.986 35.8693 235.181 35.144L236.781 34.12C236.994 33.9067 237.101 33.672 237.101 33.416C237.101 33.0747 236.909 32.7333 236.525 32.392C233.709 29.96 232.301 27.0587 232.301 23.688C232.301 20.7867 233.325 18.376 235.373 16.456C237.421 14.4933 240.045 13.512 243.245 13.512C246.445 13.512 249.133 14.4507 251.309 16.328C253.485 18.2053 254.573 20.6587 254.573 23.688C254.573 24.84 254.381 26.1627 253.997 27.656C253.101 31.2827 250.114 33.8427 245.037 35.336C244.397 35.5493 244.055 35.8053 244.013 36.104C244.013 36.232 244.098 36.3813 244.269 36.552L252.973 46.728C253.314 47.112 253.613 47.304 253.869 47.304C254.338 47.304 254.573 46.024 254.573 43.464C254.573 42.0133 255.255 41.288 256.621 41.288C256.919 41.288 257.303 41.3947 257.773 41.608C258.242 41.8213 258.477 42.44 258.477 43.464C258.477 46.024 258.178 48.3067 257.581 50.312C257.453 50.6107 257.389 50.9093 257.389 51.208C257.389 51.6773 257.559 52.104 257.901 52.488L262.253 57.608C262.594 58.0347 262.765 58.504 262.765 59.016C262.722 59.5707 262.487 60.04 262.061 60.424C261.677 60.808 261.207 61 260.653 61C260.567 61 260.375 61 260.076 61C259.821 60.9573 259.501 60.7227 259.117 60.296L255.917 56.2C255.746 55.944 255.554 55.816 255.341 55.816C255.127 55.816 254.935 55.9227 254.765 56.136C251.65 59.9333 247.661 61.832 242.797 61.832ZM241.965 32.2C242.775 32.2 243.778 31.9867 244.973 31.56C247.106 30.792 248.599 29.8533 249.453 28.744C250.306 27.6347 250.733 25.9493 250.733 23.688C250.733 21.6827 250.007 20.1253 248.557 19.016C247.149 17.864 245.378 17.288 243.245 17.288C241.154 17.288 239.447 18.12 238.125 19.784C236.802 21.448 236.141 23.176 236.141 24.968C236.141 26.9307 237.549 29.1707 240.365 31.688L240.621 31.88C240.962 32.0933 241.41 32.2 241.965 32.2ZM242.797 57.992C246.765 57.992 249.922 56.2853 252.269 52.872C252.397 52.6587 252.461 52.4453 252.461 52.232C252.461 51.976 252.311 51.6773 252.013 51.336L240.877 37.448C240.578 37.0213 240.258 36.808 239.917 36.808C239.746 36.808 239.554 36.8507 239.341 36.936C237.847 37.4053 236.482 38.024 235.245 38.792C234.007 39.56 232.983 40.6267 232.173 41.992C231.405 43.3147 231.021 45.064 231.021 47.24C231.021 50.7387 232.109 53.4053 234.285 55.24C236.461 57.0747 239.298 57.992 242.797 57.992Z" fill="white"/>
<path d="M339.36 23.832H338.976C337.952 23.832 337.056 23.4693 336.288 22.744C335.563 21.976 335.2 21.0587 335.2 19.992C335.2 18.712 335.563 17.7307 336.288 17.048C337.056 16.3227 337.952 15.96 338.976 15.96H339.36C340.341 15.96 341.195 16.3227 341.92 17.048C342.688 17.7307 343.072 18.6053 343.072 19.672C343.072 20.952 342.688 21.976 341.92 22.744C341.195 23.4693 340.341 23.832 339.36 23.832Z" fill="white"/>
<path d="M61.9181 67.8791V50.271C60.24 47.0586 55.3276 43.1308 49.1032 48.8212L43.2297 58.5347H33.2371C31.3301 58.5347 28.5078 62.3589 33.2371 64.424H46.6623L51.0865 57.9228" stroke="#2E2E2E" stroke-width="1.7" stroke-linecap="round"/>
<path d="M61.1854 37.0365C61.1854 40.4554 58.4219 43.2231 55.0177 43.2231C51.6135 43.2231 48.85 40.4554 48.85 37.0365C48.85 33.6177 51.6135 30.85 55.0177 30.85C58.4219 30.85 61.1854 33.6177 61.1854 37.0365Z" stroke="#2E2E2E" stroke-width="1.7"/>
<path d="M47.3779 2.68298L57.5994 2.68298" stroke="black" stroke-width="1.7" stroke-linecap="round"/>
<path d="M57.5996 2.68298V16.2971" stroke="black" stroke-width="1.7" stroke-linecap="round"/>
<path d="M57.5996 16.2971L72.8555 28.9935" stroke="black" stroke-width="1.7" stroke-linecap="round"/>
<path d="M72.8555 28.9934H62.1764" stroke="black" stroke-width="1.7" stroke-linecap="round"/>
<path d="M62.1758 28.9934V67.8473" stroke="black" stroke-width="1.7" stroke-linecap="round"/>
<path d="M18.6631 48.3728L25.0705 66.8819" stroke="black" stroke-width="1.7" stroke-linecap="round"/>
<path d="M25.1045 66.9292H46.005" stroke="black" stroke-width="1.7" stroke-linecap="round"/>
</svg>
