<svg width="407" height="103" fill="none" xmlns="http://www.w3.org/2000/svg"><path d="M58.255 92.88V75.27c-1.678-3.212-6.59-7.14-12.815-1.45l-5.873 9.714h-9.993c-1.907 0-4.73 3.824 0 5.889H43l4.424-6.501" stroke="#fff" stroke-width="1.7" stroke-linecap="round"/><path d="M57.522 62.036c0 3.42-2.763 6.187-6.167 6.187-3.405 0-6.168-2.768-6.168-6.187 0-3.418 2.763-6.186 6.168-6.186 3.404 0 6.167 2.768 6.167 6.186Z" stroke="#fff" stroke-width="1.7"/><path d="m15 73.373 6.407 18.51M21.441 91.93h20.9" stroke="#fff" stroke-width="1.7" stroke-linecap="round"/><path d="M1.075 55.128 36.7 27M36.698 27l10.68 8.26M47.378 34.955v-6.272M1 55.147h9.764M10.764 55.147V94" stroke="#000" stroke-width="1.7" stroke-linecap="round"/><path d="M92.168 87.832c-5.419 0-9.557-2.197-12.416-6.592-.341-.597-.512-1.152-.512-1.664 0-.341.15-.768.448-1.28.341-.555.939-.832 1.792-.832.768 0 1.515.448 2.24 1.344.981 1.493 2.133 2.73 3.456 3.712 1.323.981 2.987 1.472 4.992 1.472 3.03 0 5.44-.96 7.232-2.88 1.792-1.963 2.688-4.459 2.688-7.488 0-2.773-.917-5.099-2.752-6.976-1.792-1.877-4.096-2.816-6.912-2.816h-.704c-3.115 0-5.803-1.11-8.064-3.328-2.261-2.219-3.392-5.184-3.392-8.896 0-3.328 1.11-6.165 3.328-8.512 2.219-2.39 5.077-3.584 8.576-3.584 4.693 0 8.235 1.92 10.624 5.76.213.47.32.875.32 1.216 0 .341-.171.747-.512 1.216-.299.47-.896.704-1.792.704-.555 0-1.067-.256-1.536-.768-1.067-1.323-2.133-2.368-3.2-3.136-1.024-.768-2.325-1.152-3.904-1.152-2.432 0-4.395.81-5.888 2.432-1.45 1.621-2.176 3.563-2.176 5.824 0 1.28.256 2.581.768 3.904s1.323 2.39 2.432 3.2c1.152.81 2.645 1.216 4.48 1.216h.704c1.792 0 3.712.47 5.76 1.408 2.048.896 3.84 2.368 5.376 4.416 1.579 2.048 2.368 4.672 2.368 7.872 0 4.096-1.28 7.488-3.84 10.176-2.56 2.688-5.888 4.032-9.984 4.032ZM118.106 87c-.597 0-1.088-.192-1.472-.576a1.915 1.915 0 0 1-.576-1.408V61.208c0-.512-.235-.768-.704-.768h-3.072a1.915 1.915 0 0 1-1.408-.576c-.384-.384-.576-.875-.576-1.472s.192-1.088.576-1.472a1.915 1.915 0 0 1 1.408-.576h3.008c.512 0 .768-.341.768-1.024V42.264c0-.555.192-1.024.576-1.408.384-.384.875-.576 1.472-.576s1.088.192 1.472.576c.384.384.576.853.576 1.408v13.248c0 .512.256.79.768.832h3.008c.555 0 1.024.192 1.408.576.384.384.576.875.576 1.472s-.192 1.088-.576 1.472a1.915 1.915 0 0 1-1.408.576h-2.112c-.853 0-1.344.043-1.472.128-.128.085-.192.277-.192.576v23.872c0 .555-.192 1.024-.576 1.408-.384.384-.875.576-1.472.576Zm25.832.832c-1.92 0-3.883-.363-5.888-1.088-1.963-.768-3.606-2.09-4.928-3.968-1.323-1.877-1.984-4.459-1.984-7.744V58.328c0-.555.192-1.024.576-1.408.384-.384.896-.576 1.536-.576.597 0 1.088.192 1.472.576.384.384.576.853.576 1.408v16.448c0 2.09.405 3.819 1.216 5.184.853 1.365 1.941 2.39 3.264 3.072 1.322.64 2.709.96 4.16.96 1.493 0 2.901-.32 4.224-.96 1.322-.683 2.389-1.707 3.2-3.072.81-1.365 1.216-3.093 1.216-5.184V58.328c0-.555.192-1.024.576-1.408.384-.384.874-.576 1.472-.576.597 0 1.088.192 1.472.576.384.384.576.853.576 1.408v16.704c0 3.285-.662 5.867-1.984 7.744-1.323 1.877-2.966 3.2-4.928 3.968-1.92.725-3.862 1.088-5.824 1.088Zm34.113 0c-4.395 0-8.192-1.579-11.392-4.736-3.157-3.157-4.736-6.976-4.736-11.456 0-4.48 1.579-8.277 4.736-11.392 3.2-3.115 6.997-4.672 11.392-4.672 4.437 0 8.107 1.728 11.008 5.184.085.128.192.192.32.192h.256c.085 0 .128-.128.128-.384V42.2c0-.512.192-.96.576-1.344a1.915 1.915 0 0 1 1.408-.576c.683 0 1.216.192 1.6.576.384.384.576.832.576 1.344v42.88c0 .555-.192 1.024-.576 1.408a1.96 1.96 0 0 1-1.344.512c-.725 0-1.28-.17-1.664-.512a1.915 1.915 0 0 1-.576-1.408v-2.432c0-.256-.043-.384-.128-.384h-.128c-.043 0-.107.043-.192.128-3.2 3.627-6.955 5.44-11.264 5.44Zm0-3.84c3.328 0 6.165-1.216 8.512-3.648 2.347-2.475 3.52-5.376 3.52-8.704 0-3.328-1.173-6.187-3.52-8.576-2.347-2.432-5.184-3.648-8.512-3.648-3.328 0-6.165 1.216-8.512 3.648-2.347 2.39-3.52 5.248-3.52 8.576 0 3.328 1.173 6.23 3.52 8.704 2.347 2.432 5.184 3.648 8.512 3.648Zm27.586 9.6h-1.664c-.64 0-.96-.256-.96-.768 0-.213.043-.427.128-.64l4.864-10.176c.299-.555.448-1.024.448-1.408 0-.341-.149-.79-.448-1.344l-10.112-21.568-.064-.512c0-.555.32-.832.96-.832h1.664c.427 0 .832.128 1.216.384.427.256.747.576.96.96l7.872 18.752c.213.47.363.704.448.704.085 0 .213-.213.384-.64.085-.128 2.752-6.4 8-18.816.213-.384.512-.704.896-.96.427-.256.853-.384 1.28-.384h1.664c.64 0 .96.256.96.768l-.064.576-16.256 34.496c-.171.384-.469.704-.896.96a2.035 2.035 0 0 1-1.28.448Zm77.603-5.76c-4.48 0-8.299-1.579-11.456-4.736s-4.736-6.976-4.736-11.456c0-4.48 1.579-8.277 4.736-11.392s6.976-4.672 11.456-4.672c4.48 0 8.299 1.557 11.456 4.672 2.261 2.261 3.605 4.992 4.032 8.192l.064.448c0 .384-.107.832-.32 1.344-.213.512-.768.768-1.664.768h-24.512c-.427 0-.704.085-.832.256-.128.128-.192.341-.192.64v.32c.256 3.2 1.429 5.824 3.52 7.872 2.603 2.603 5.419 3.904 8.448 3.904 1.621 0 3.179-.341 4.672-1.024 1.536-.725 2.688-1.557 3.456-2.496 1.024-1.28 1.877-1.92 2.56-1.92.384 0 .811.128 1.28.384.597.47.896 1.024.896 1.664 0 .555-.213 1.088-.64 1.6-3.2 3.755-7.275 5.632-12.224 5.632Zm9.856-20.928c.64 0 .96-.128.96-.384 0-.213-.128-.47-.384-.768v-.064c-.427-.853-1.088-1.685-1.984-2.496-2.347-2.517-5.163-3.776-8.448-3.776-3.328 0-6.165 1.259-8.512 3.776-.981 1.024-1.728 1.963-2.24 2.816-.128.256-.192.448-.192.576 0 .085.043.17.128.256.128.043 7.019.064 20.672.064ZM327.953 87c-.597 0-1.088-.192-1.472-.576a1.915 1.915 0 0 1-.576-1.408V68.504c0-2.133-.469-3.861-1.408-5.184-.896-1.323-2.048-2.304-3.456-2.944a10.411 10.411 0 0 0-4.352-.96c-5.76 0-8.64 2.603-8.64 7.808v17.792c0 .555-.192 1.024-.576 1.408-.384.384-.875.576-1.472.576-.64 0-1.152-.192-1.536-.576a1.915 1.915 0 0 1-.576-1.408l-.064-26.752c0-.555.192-1.003.576-1.344a1.915 1.915 0 0 1 1.408-.576c.64 0 1.152.17 1.536.512.427.341.64.81.64 1.408v.192c0 .17.107.256.32.256.085 0 .149-.021.192-.064 1.963-2.048 4.693-3.072 8.192-3.072 1.963 0 3.968.363 6.016 1.088 2.048.725 3.776 2.005 5.184 3.84 1.408 1.835 2.112 4.416 2.112 7.744v16.768c0 .555-.192 1.024-.576 1.408-.384.384-.875.576-1.472.576Zm6.067 7.168h-.256c-.854 0-1.473-.341-1.857-1.024-.17-.427-.256-.81-.256-1.152 0-.384.128-.79.384-1.216.256-.384.598-.619 1.024-.704.726-.17 1.323-.448 1.793-.832.938-.896 1.514-1.835 1.728-2.816.256-1.024.384-1.941.384-2.752V58.328c0-.555.192-1.024.576-1.408.384-.384.874-.576 1.472-.576.597 0 1.088.192 1.472.576.384.384.576.853.576 1.408v24.256c0 2.048-.278 3.925-.832 5.632-.512 1.707-1.664 3.328-3.456 4.864-.854.683-1.771 1.045-2.752 1.088Zm28.469-6.336c-4.438 0-8.235-1.579-11.392-4.736-3.158-3.157-4.736-6.955-4.736-11.392 0-4.437 1.578-8.235 4.736-11.392 3.157-3.157 6.954-4.736 11.392-4.736 4.48 0 8.298 1.579 11.456 4.736 3.157 3.157 4.736 6.955 4.736 11.392 0 4.437-1.579 8.235-4.736 11.392-3.158 3.157-6.976 4.736-11.456 4.736Zm0-3.84c3.328 0 6.165-1.216 8.512-3.648 2.346-2.432 3.52-5.312 3.52-8.64 0-3.328-1.174-6.208-3.52-8.64-2.347-2.432-5.184-3.648-8.512-3.648-3.286 0-6.123 1.216-8.512 3.648-2.347 2.432-3.52 5.312-3.52 8.64 0 3.328 1.173 6.208 3.52 8.64 2.389 2.432 5.226 3.648 8.512 3.648Zm24.836 9.6h-1.664c-.64 0-.96-.256-.96-.768 0-.213.042-.427.128-.64l4.864-10.176c.298-.555.448-1.024.448-1.408 0-.341-.15-.79-.448-1.344l-10.112-21.568-.064-.512c0-.555.32-.832.96-.832h1.664c.426 0 .832.128 1.216.384.426.256.746.576.96.96l7.872 18.752c.213.47.362.704.448.704.085 0 .213-.213.384-.64.085-.128 2.752-6.4 8-18.816.213-.384.512-.704.896-.96.426-.256.853-.384 1.28-.384h1.664c.64 0 .96.256.96.768l-.064.576-16.256 34.496c-.171.384-.47.704-.896.96a2.035 2.035 0 0 1-1.28.448Z" fill="#fff"/><path d="M242.797 87.832c-4.566 0-8.342-1.28-11.328-3.84-2.944-2.603-4.416-6.187-4.416-10.752 0-2.304.426-4.203 1.28-5.696.896-1.536 1.962-2.795 3.2-3.776a30.886 30.886 0 0 1 3.648-2.624l1.6-1.024c.213-.213.32-.448.32-.704 0-.341-.192-.683-.576-1.024-2.816-2.432-4.224-5.333-4.224-8.704 0-2.901 1.024-5.312 3.072-7.232 2.048-1.963 4.672-2.944 7.872-2.944s5.888.939 8.064 2.816c2.176 1.877 3.264 4.33 3.264 7.36 0 1.152-.192 2.475-.576 3.968-.896 3.627-3.883 6.187-8.96 7.68-.64.213-.982.47-1.024.768 0 .128.085.277.256.448l8.704 10.176c.341.384.64.576.896.576.469 0 .704-1.28.704-3.84 0-1.45.682-2.176 2.048-2.176.298 0 .682.107 1.152.32.469.213.704.832.704 1.856 0 2.56-.299 4.843-.896 6.848a2.259 2.259 0 0 0-.192.896c0 .47.17.896.512 1.28l4.352 5.12c.341.427.512.896.512 1.408a2.05 2.05 0 0 1-.704 1.408 1.916 1.916 0 0 1-1.408.576h-.577c-.255-.043-.575-.277-.959-.704l-3.2-4.096c-.171-.256-.363-.384-.576-.384-.214 0-.406.107-.576.32-3.115 3.797-7.104 5.696-11.968 5.696Zm-.832-29.632c.81 0 1.813-.213 3.008-.64 2.133-.768 3.626-1.707 4.48-2.816.853-1.11 1.28-2.795 1.28-5.056 0-2.005-.726-3.563-2.176-4.672-1.408-1.152-3.179-1.728-5.312-1.728-2.091 0-3.798.832-5.12 2.496-1.323 1.664-1.984 3.392-1.984 5.184 0 1.963 1.408 4.203 4.224 6.72l.256.192c.341.213.789.32 1.344.32Zm.832 25.792c3.968 0 7.125-1.707 9.472-5.12.128-.213.192-.427.192-.64 0-.256-.15-.555-.448-.896l-11.136-13.888c-.299-.427-.619-.64-.96-.64a1.57 1.57 0 0 0-.576.128 17.89 17.89 0 0 0-4.096 1.856c-1.238.768-2.262 1.835-3.072 3.2-.768 1.323-1.152 3.072-1.152 5.248 0 3.499 1.088 6.165 3.264 8 2.176 1.835 5.013 2.752 8.512 2.752ZM339.36 49.832h-.384c-1.024 0-1.92-.363-2.688-1.088-.725-.768-1.088-1.685-1.088-2.752 0-1.28.363-2.261 1.088-2.944.768-.725 1.664-1.088 2.688-1.088h.384c.981 0 1.835.363 2.56 1.088.768.683 1.152 1.557 1.152 2.624 0 1.28-.384 2.304-1.152 3.072-.725.725-1.579 1.088-2.56 1.088Z" fill="#000"/><path d="M47.378 28.683h10.221M57.6 28.683v13.614M57.6 42.297l15.256 12.696M72.856 54.993h-10.68M62.176 54.993v38.854" stroke="#000" stroke-width="1.7" stroke-linecap="round"/></svg>