<svg width="152" height="39" viewBox="0 0 152 39" fill="none" xmlns="http://www.w3.org/2000/svg">
<path d="M1 22L13.4077 11" stroke="black" stroke-width="0.5" stroke-linecap="round"/>
<path d="M13.4077 11.0002L17.1009 14.0824" stroke="black" stroke-width="0.5" stroke-linecap="round"/>
<path d="M17 14.0001V12.0001" stroke="black" stroke-width="0.5" stroke-linecap="round"/>
<path d="M1 22.0001H5" stroke="black" stroke-width="0.5" stroke-linecap="round"/>
<path d="M5 22.0001L5 36.0001" stroke="black" stroke-width="0.5" stroke-linecap="round"/>
<path d="M33.688 33.312C31.656 33.312 30.104 32.488 29.032 30.84C28.904 30.616 28.84 30.408 28.84 30.216C28.84 30.088 28.896 29.928 29.008 29.736C29.136 29.528 29.36 29.424 29.68 29.424C29.968 29.424 30.248 29.592 30.52 29.928C30.888 30.488 31.32 30.952 31.816 31.32C32.312 31.688 32.936 31.872 33.688 31.872C34.824 31.872 35.728 31.512 36.4 30.792C37.072 30.056 37.408 29.12 37.408 27.984C37.408 26.944 37.064 26.072 36.376 25.368C35.704 24.664 34.84 24.312 33.784 24.312H33.52C32.352 24.312 31.344 23.896 30.496 23.064C29.648 22.232 29.224 21.12 29.224 19.728C29.224 18.48 29.64 17.416 30.472 16.536C31.304 15.64 32.376 15.192 33.688 15.192C35.448 15.192 36.776 15.912 37.672 17.352C37.752 17.528 37.792 17.68 37.792 17.808C37.792 17.936 37.728 18.088 37.6 18.264C37.488 18.44 37.264 18.528 36.928 18.528C36.72 18.528 36.528 18.432 36.352 18.24C35.952 17.744 35.552 17.352 35.152 17.064C34.768 16.776 34.28 16.632 33.688 16.632C32.776 16.632 32.04 16.936 31.48 17.544C30.936 18.152 30.664 18.88 30.664 19.728C30.664 20.208 30.76 20.696 30.952 21.192C31.144 21.688 31.448 22.088 31.864 22.392C32.296 22.696 32.856 22.848 33.544 22.848H33.808C34.48 22.848 35.2 23.024 35.968 23.376C36.736 23.712 37.408 24.264 37.984 25.032C38.576 25.8 38.872 26.784 38.872 27.984C38.872 29.52 38.392 30.792 37.432 31.8C36.472 32.808 35.224 33.312 33.688 33.312ZM43.4148 33C43.1908 33 43.0068 32.928 42.8628 32.784C42.7188 32.64 42.6468 32.464 42.6468 32.256V23.328C42.6468 23.136 42.5588 23.04 42.3828 23.04H41.2308C41.0228 23.04 40.8468 22.968 40.7028 22.824C40.5588 22.68 40.4868 22.496 40.4868 22.272C40.4868 22.048 40.5588 21.864 40.7028 21.72C40.8468 21.576 41.0228 21.504 41.2308 21.504H42.3588C42.5508 21.504 42.6468 21.376 42.6468 21.12V16.224C42.6468 16.016 42.7188 15.84 42.8628 15.696C43.0068 15.552 43.1908 15.48 43.4148 15.48C43.6388 15.48 43.8228 15.552 43.9668 15.696C44.1108 15.84 44.1828 16.016 44.1828 16.224V21.192C44.1828 21.384 44.2788 21.488 44.4708 21.504H45.5988C45.8068 21.504 45.9828 21.576 46.1268 21.72C46.2708 21.864 46.3428 22.048 46.3428 22.272C46.3428 22.496 46.2708 22.68 46.1268 22.824C45.9828 22.968 45.8068 23.04 45.5988 23.04H44.8068C44.4868 23.04 44.3028 23.056 44.2548 23.088C44.2068 23.12 44.1828 23.192 44.1828 23.304V32.256C44.1828 32.464 44.1108 32.64 43.9668 32.784C43.8228 32.928 43.6388 33 43.4148 33ZM53.1016 33.312C52.3816 33.312 51.6456 33.176 50.8936 32.904C50.1576 32.616 49.5416 32.12 49.0456 31.416C48.5496 30.712 48.3016 29.744 48.3016 28.512V22.248C48.3016 22.04 48.3736 21.864 48.5176 21.72C48.6616 21.576 48.8536 21.504 49.0936 21.504C49.3176 21.504 49.5016 21.576 49.6456 21.72C49.7896 21.864 49.8616 22.04 49.8616 22.248V28.416C49.8616 29.2 50.0136 29.848 50.3176 30.36C50.6376 30.872 51.0456 31.256 51.5416 31.512C52.0376 31.752 52.5576 31.872 53.1016 31.872C53.6616 31.872 54.1896 31.752 54.6856 31.512C55.1816 31.256 55.5816 30.872 55.8856 30.36C56.1896 29.848 56.3416 29.2 56.3416 28.416V22.248C56.3416 22.04 56.4136 21.864 56.5576 21.72C56.7016 21.576 56.8856 21.504 57.1096 21.504C57.3336 21.504 57.5176 21.576 57.6616 21.72C57.8056 21.864 57.8776 22.04 57.8776 22.248V28.512C57.8776 29.744 57.6296 30.712 57.1336 31.416C56.6376 32.12 56.0216 32.616 55.2856 32.904C54.5656 33.176 53.8376 33.312 53.1016 33.312ZM65.8941 33.312C64.2461 33.312 62.8221 32.72 61.6221 31.536C60.4381 30.352 59.8461 28.92 59.8461 27.24C59.8461 25.56 60.4381 24.136 61.6221 22.968C62.8221 21.8 64.2461 21.216 65.8941 21.216C67.5581 21.216 68.9341 21.864 70.0221 23.16C70.0541 23.208 70.0941 23.232 70.1421 23.232H70.2381C70.2701 23.232 70.2861 23.184 70.2861 23.088V16.2C70.2861 16.008 70.3581 15.84 70.5021 15.696C70.6461 15.552 70.8221 15.48 71.0301 15.48C71.2861 15.48 71.4861 15.552 71.6301 15.696C71.7741 15.84 71.8461 16.008 71.8461 16.2V32.28C71.8461 32.488 71.7741 32.664 71.6301 32.808C71.4861 32.936 71.3181 33 71.1261 33C70.8541 33 70.6461 32.936 70.5021 32.808C70.3581 32.664 70.2861 32.488 70.2861 32.28V31.368C70.2861 31.272 70.2701 31.224 70.2381 31.224C70.2221 31.224 70.2061 31.224 70.1901 31.224C70.1741 31.224 70.1501 31.24 70.1181 31.272C68.9181 32.632 67.5101 33.312 65.8941 33.312ZM65.8941 31.872C67.1421 31.872 68.2061 31.416 69.0861 30.504C69.9661 29.576 70.4061 28.488 70.4061 27.24C70.4061 25.992 69.9661 24.92 69.0861 24.024C68.2061 23.112 67.1421 22.656 65.8941 22.656C64.6461 22.656 63.5821 23.112 62.7021 24.024C61.8221 24.92 61.3821 25.992 61.3821 27.24C61.3821 28.488 61.8221 29.576 62.7021 30.504C63.5821 31.416 64.6461 31.872 65.8941 31.872ZM76.2389 35.472H75.6149C75.3749 35.472 75.2549 35.376 75.2549 35.184C75.2549 35.104 75.2709 35.024 75.3029 34.944L77.1269 31.128C77.2389 30.92 77.2949 30.744 77.2949 30.6C77.2949 30.472 77.2389 30.304 77.1269 30.096L73.3349 22.008L73.3109 21.816C73.3109 21.608 73.4309 21.504 73.6709 21.504H74.2949C74.4549 21.504 74.6069 21.552 74.7509 21.648C74.9109 21.744 75.0309 21.864 75.1109 22.008L78.0629 29.04C78.1429 29.216 78.1989 29.304 78.2309 29.304C78.2629 29.304 78.3109 29.224 78.3749 29.064C78.4069 29.016 79.4069 26.664 81.3749 22.008C81.4549 21.864 81.5669 21.744 81.7109 21.648C81.8709 21.552 82.0309 21.504 82.1909 21.504H82.8149C83.0549 21.504 83.1749 21.6 83.1749 21.792L83.1509 22.008L77.0549 34.944C76.9909 35.088 76.8789 35.208 76.7189 35.304C76.5749 35.416 76.4149 35.472 76.2389 35.472ZM105.34 33.312C103.66 33.312 102.228 32.72 101.044 31.536C99.86 30.352 99.268 28.92 99.268 27.24C99.268 25.56 99.86 24.136 101.044 22.968C102.228 21.8 103.66 21.216 105.34 21.216C107.02 21.216 108.452 21.8 109.636 22.968C110.484 23.816 110.988 24.84 111.148 26.04L111.172 26.208C111.172 26.352 111.132 26.52 111.052 26.712C110.972 26.904 110.764 27 110.428 27H101.236C101.076 27 100.972 27.032 100.924 27.096C100.876 27.144 100.852 27.224 100.852 27.336V27.456C100.948 28.656 101.388 29.64 102.172 30.408C103.148 31.384 104.204 31.872 105.34 31.872C105.948 31.872 106.532 31.744 107.092 31.488C107.668 31.216 108.1 30.904 108.388 30.552C108.772 30.072 109.092 29.832 109.348 29.832C109.492 29.832 109.652 29.88 109.828 29.976C110.052 30.152 110.164 30.36 110.164 30.6C110.164 30.808 110.084 31.008 109.924 31.2C108.724 32.608 107.196 33.312 105.34 33.312ZM109.036 25.464C109.276 25.464 109.396 25.416 109.396 25.32C109.396 25.24 109.348 25.144 109.252 25.032V25.008C109.092 24.688 108.844 24.376 108.508 24.072C107.628 23.128 106.572 22.656 105.34 22.656C104.092 22.656 103.028 23.128 102.148 24.072C101.78 24.456 101.5 24.808 101.308 25.128C101.26 25.224 101.236 25.296 101.236 25.344C101.236 25.376 101.252 25.408 101.284 25.44C101.332 25.456 103.916 25.464 109.036 25.464ZM122.107 33C121.883 33 121.699 32.928 121.555 32.784C121.411 32.64 121.339 32.464 121.339 32.256V26.064C121.339 25.264 121.163 24.616 120.811 24.12C120.475 23.624 120.043 23.256 119.515 23.016C118.987 22.776 118.443 22.656 117.883 22.656C115.723 22.656 114.643 23.632 114.643 25.584V32.256C114.643 32.464 114.571 32.64 114.427 32.784C114.283 32.928 114.099 33 113.875 33C113.635 33 113.443 32.928 113.299 32.784C113.155 32.64 113.083 32.464 113.083 32.256L113.059 22.224C113.059 22.016 113.131 21.848 113.275 21.72C113.419 21.576 113.595 21.504 113.803 21.504C114.043 21.504 114.235 21.568 114.379 21.696C114.539 21.824 114.619 22 114.619 22.224V22.296C114.619 22.36 114.659 22.392 114.739 22.392C114.771 22.392 114.795 22.384 114.811 22.368C115.547 21.6 116.571 21.216 117.883 21.216C118.619 21.216 119.371 21.352 120.139 21.624C120.907 21.896 121.555 22.376 122.083 23.064C122.611 23.752 122.875 24.72 122.875 25.968V32.256C122.875 32.464 122.803 32.64 122.659 32.784C122.515 32.928 122.331 33 122.107 33ZM124.382 35.688H124.286C123.966 35.688 123.734 35.56 123.59 35.304C123.526 35.144 123.494 35 123.494 34.872C123.494 34.728 123.542 34.576 123.638 34.416C123.734 34.272 123.862 34.184 124.022 34.152C124.294 34.088 124.518 33.984 124.694 33.84C125.046 33.504 125.262 33.152 125.342 32.784C125.438 32.4 125.486 32.056 125.486 31.752V22.248C125.486 22.04 125.558 21.864 125.702 21.72C125.846 21.576 126.03 21.504 126.254 21.504C126.478 21.504 126.662 21.576 126.806 21.72C126.95 21.864 127.022 22.04 127.022 22.248V31.344C127.022 32.112 126.918 32.816 126.71 33.456C126.518 34.096 126.086 34.704 125.414 35.28C125.094 35.536 124.75 35.672 124.382 35.688ZM135.058 33.312C133.394 33.312 131.97 32.72 130.786 31.536C129.602 30.352 129.01 28.928 129.01 27.264C129.01 25.6 129.602 24.176 130.786 22.992C131.97 21.808 133.394 21.216 135.058 21.216C136.738 21.216 138.17 21.808 139.354 22.992C140.538 24.176 141.13 25.6 141.13 27.264C141.13 28.928 140.538 30.352 139.354 31.536C138.17 32.72 136.738 33.312 135.058 33.312ZM135.058 31.872C136.306 31.872 137.37 31.416 138.25 30.504C139.13 29.592 139.57 28.512 139.57 27.264C139.57 26.016 139.13 24.936 138.25 24.024C137.37 23.112 136.306 22.656 135.058 22.656C133.826 22.656 132.762 23.112 131.866 24.024C130.986 24.936 130.546 26.016 130.546 27.264C130.546 28.512 130.986 29.592 131.866 30.504C132.762 31.416 133.826 31.872 135.058 31.872ZM144.372 35.472H143.748C143.508 35.472 143.388 35.376 143.388 35.184C143.388 35.104 143.404 35.024 143.436 34.944L145.26 31.128C145.372 30.92 145.428 30.744 145.428 30.6C145.428 30.472 145.372 30.304 145.26 30.096L141.468 22.008L141.444 21.816C141.444 21.608 141.564 21.504 141.804 21.504H142.428C142.588 21.504 142.74 21.552 142.884 21.648C143.044 21.744 143.164 21.864 143.244 22.008L146.196 29.04C146.276 29.216 146.332 29.304 146.364 29.304C146.396 29.304 146.444 29.224 146.508 29.064C146.54 29.016 147.54 26.664 149.508 22.008C149.588 21.864 149.7 21.744 149.844 21.648C150.004 21.552 150.164 21.504 150.324 21.504H150.948C151.188 21.504 151.308 21.6 151.308 21.792L151.284 22.008L145.188 34.944C145.124 35.088 145.012 35.208 144.852 35.304C144.708 35.416 144.548 35.472 144.372 35.472Z" fill="black"/>
<path d="M90.1737 33.312C88.4617 33.312 87.0457 32.832 85.9257 31.872C84.8217 30.896 84.2697 29.552 84.2697 27.84C84.2697 26.976 84.4297 26.264 84.7497 25.704C85.0857 25.128 85.4857 24.656 85.9497 24.288C86.4137 23.904 86.8697 23.576 87.3177 23.304L87.9177 22.92C87.9977 22.84 88.0377 22.752 88.0377 22.656C88.0377 22.528 87.9657 22.4 87.8217 22.272C86.7657 21.36 86.2377 20.272 86.2377 19.008C86.2377 17.92 86.6217 17.016 87.3897 16.296C88.1577 15.56 89.1417 15.192 90.3417 15.192C91.5417 15.192 92.5497 15.544 93.3657 16.248C94.1817 16.952 94.5897 17.872 94.5897 19.008C94.5897 19.44 94.5177 19.936 94.3737 20.496C94.0377 21.856 92.9177 22.816 91.0137 23.376C90.7737 23.456 90.6457 23.552 90.6297 23.664C90.6297 23.712 90.6617 23.768 90.7257 23.832L93.9897 27.648C94.1177 27.792 94.2297 27.864 94.3257 27.864C94.5017 27.864 94.5897 27.384 94.5897 26.424C94.5897 25.88 94.8457 25.608 95.3577 25.608C95.4697 25.608 95.6137 25.648 95.7897 25.728C95.9657 25.808 96.0537 26.04 96.0537 26.424C96.0537 27.384 95.9417 28.24 95.7177 28.992C95.6697 29.104 95.6457 29.216 95.6457 29.328C95.6457 29.504 95.7097 29.664 95.8377 29.808L97.4697 31.728C97.5977 31.888 97.6617 32.064 97.6617 32.256C97.6457 32.464 97.5577 32.64 97.3977 32.784C97.2537 32.928 97.0777 33 96.8697 33C96.8377 33 96.7657 33 96.6537 33C96.5577 32.984 96.4377 32.896 96.2937 32.736L95.0937 31.2C95.0297 31.104 94.9577 31.056 94.8777 31.056C94.7977 31.056 94.7257 31.096 94.6617 31.176C93.4937 32.6 91.9977 33.312 90.1737 33.312ZM89.8617 22.2C90.1657 22.2 90.5417 22.12 90.9897 21.96C91.7897 21.672 92.3497 21.32 92.6697 20.904C92.9897 20.488 93.1497 19.856 93.1497 19.008C93.1497 18.256 92.8777 17.672 92.3337 17.256C91.8057 16.824 91.1417 16.608 90.3417 16.608C89.5577 16.608 88.9177 16.92 88.4217 17.544C87.9257 18.168 87.6777 18.816 87.6777 19.488C87.6777 20.224 88.2057 21.064 89.2617 22.008L89.3577 22.08C89.4857 22.16 89.6537 22.2 89.8617 22.2ZM90.1737 31.872C91.6617 31.872 92.8457 31.232 93.7257 29.952C93.7737 29.872 93.7977 29.792 93.7977 29.712C93.7977 29.616 93.7417 29.504 93.6297 29.376L89.4537 24.168C89.3417 24.008 89.2217 23.928 89.0937 23.928C89.0297 23.928 88.9577 23.944 88.8777 23.976C88.3177 24.152 87.8057 24.384 87.3417 24.672C86.8777 24.96 86.4937 25.36 86.1897 25.872C85.9017 26.368 85.7577 27.024 85.7577 27.84C85.7577 29.152 86.1657 30.152 86.9817 30.84C87.7977 31.528 88.8617 31.872 90.1737 31.872Z" fill="white"/>
<path d="M126.76 18.312H126.616C126.232 18.312 125.896 18.176 125.608 17.904C125.336 17.616 125.2 17.272 125.2 16.872C125.2 16.392 125.336 16.024 125.608 15.768C125.896 15.496 126.232 15.36 126.616 15.36H126.76C127.128 15.36 127.448 15.496 127.72 15.768C128.008 16.024 128.152 16.352 128.152 16.752C128.152 17.232 128.008 17.616 127.72 17.904C127.448 18.176 127.128 18.312 126.76 18.312Z" fill="white"/>
<path d="M22 36.0001V28.7795C21.4097 27.4622 19.6819 25.8515 17.4926 28.185L15.4266 32.1682H11.9119C11.2412 32.1682 10.2484 33.7364 11.9119 34.5832H16.634L18.1901 31.9173" stroke="#2E2E2E" stroke-width="0.5" stroke-linecap="round"/>
<circle cx="19.5" cy="24.5001" r="2.25" stroke="#2E2E2E" stroke-width="0.5"/>
<path d="M17 12.0001L21 12.0001" stroke="black" stroke-width="0.5" stroke-linecap="round"/>
<path d="M21 12.0001V17.0001" stroke="black" stroke-width="0.5" stroke-linecap="round"/>
<path d="M21 17L26 22" stroke="black" stroke-width="0.5" stroke-linecap="round"/>
<path d="M26 22L22 22.0001" stroke="black" stroke-width="0.5" stroke-linecap="round"/>
<path d="M22 22.0001V36.0001" stroke="black" stroke-width="0.5" stroke-linecap="round"/>
<path d="M7 29L9 36" stroke="black" stroke-width="0.5" stroke-linecap="round"/>
<path d="M9 36L16 36.0001" stroke="black" stroke-width="0.5" stroke-linecap="round"/>
</svg>
