<svg width="307" height="83" viewBox="0 0 307 83" fill="none" xmlns="http://www.w3.org/2000/svg">
<path d="M1.0752 29.1284L36.6989 0.999962" stroke="black" stroke-width="1.7" stroke-linecap="round"/>
<path d="M36.6982 1.00049L47.3773 9.26076" stroke="black" stroke-width="1.7" stroke-linecap="round"/>
<path d="M47.3779 8.95459V2.6829" stroke="black" stroke-width="1.7" stroke-linecap="round"/>
<path d="M1 29.1465H10.7637" stroke="black" stroke-width="1.7" stroke-linecap="round"/>
<path d="M10.7637 29.1465L10.7637 68.0004" stroke="black" stroke-width="1.7" stroke-linecap="round"/>
<path d="M61.9181 67.8791V50.271C60.24 47.0586 55.3276 43.1308 49.1032 48.8212L43.2297 58.5347H33.2371C31.3301 58.5347 28.5078 62.3589 33.2371 64.424H46.6623L51.0865 57.9228" stroke="#2E2E2E" stroke-width="1.7" stroke-linecap="round"/>
<path d="M61.1854 37.0365C61.1854 40.4554 58.4219 43.2231 55.0177 43.2231C51.6135 43.2231 48.85 40.4554 48.85 37.0365C48.85 33.6177 51.6135 30.85 55.0177 30.85C58.4219 30.85 61.1854 33.6177 61.1854 37.0365Z" stroke="#2E2E2E" stroke-width="1.7"/>
<path d="M47.3779 2.68311L57.5994 2.68311" stroke="black" stroke-width="1.7" stroke-linecap="round"/>
<path d="M57.5996 2.68311V16.2973" stroke="black" stroke-width="1.7" stroke-linecap="round"/>
<path d="M57.5996 16.2969L72.8555 28.9932" stroke="black" stroke-width="1.7" stroke-linecap="round"/>
<path d="M72.8555 28.9932H62.1764" stroke="black" stroke-width="1.7" stroke-linecap="round"/>
<path d="M62.1758 28.9932V67.847" stroke="black" stroke-width="1.7" stroke-linecap="round"/>
<path d="M18.6631 48.373L25.0705 66.8822" stroke="black" stroke-width="1.7" stroke-linecap="round"/>
<path d="M25.1045 66.9292H46.005" stroke="black" stroke-width="1.7" stroke-linecap="round"/>
<path d="M129.84 67C129.2 67 128.688 66.808 128.304 66.424C127.92 66.04 127.728 65.5707 127.728 65.016V45.752C127.728 45.3253 127.536 45.112 127.152 45.112H103.28C102.896 45.112 102.704 45.3253 102.704 45.752V65.016C102.704 65.5707 102.512 66.04 102.128 66.424C101.744 66.808 101.253 67 100.656 67C100.016 67 99.5038 66.808 99.1198 66.424C98.7358 66.04 98.5438 65.5707 98.5438 65.016V22.264C98.5438 21.7093 98.7358 21.24 99.1198 20.856C99.5038 20.472 100.016 20.28 100.656 20.28C101.253 20.28 101.744 20.472 102.128 20.856C102.512 21.24 102.704 21.7093 102.704 22.264V40.376C102.704 40.5467 102.746 40.696 102.832 40.824C102.96 40.952 103.109 41.016 103.28 41.016H127.152C127.322 41.016 127.45 40.952 127.536 40.824C127.664 40.696 127.728 40.5467 127.728 40.376V22.264C127.728 21.7093 127.92 21.24 128.304 20.856C128.688 20.472 129.2 20.28 129.84 20.28C130.437 20.28 130.928 20.472 131.312 20.856C131.696 21.24 131.888 21.7093 131.888 22.264V65.016C131.888 65.5707 131.696 66.04 131.312 66.424C130.928 66.808 130.437 67 129.84 67ZM153.334 67.832C148.854 67.832 145.035 66.2533 141.878 63.096C138.72 59.9387 137.142 56.12 137.142 51.64C137.142 47.16 138.72 43.3627 141.878 40.248C145.035 37.1333 148.854 35.576 153.334 35.576C157.814 35.576 161.632 37.1333 164.79 40.248C167.051 42.5093 168.395 45.24 168.822 48.44L168.886 48.888C168.886 49.272 168.779 49.72 168.566 50.232C168.352 50.744 167.798 51 166.902 51H142.39C141.963 51 141.686 51.0853 141.558 51.256C141.43 51.384 141.366 51.5973 141.366 51.896V52.216C141.622 55.416 142.795 58.04 144.886 60.088C147.488 62.6907 150.304 63.992 153.334 63.992C154.955 63.992 156.512 63.6507 158.006 62.968C159.542 62.2427 160.694 61.4107 161.462 60.472C162.486 59.192 163.339 58.552 164.022 58.552C164.406 58.552 164.832 58.68 165.302 58.936C165.899 59.4053 166.198 59.96 166.198 60.6C166.198 61.1547 165.984 61.688 165.558 62.2C162.358 65.9547 158.283 67.832 153.334 67.832ZM163.19 46.904C163.83 46.904 164.15 46.776 164.15 46.52C164.15 46.3067 164.022 46.0507 163.766 45.752V45.688C163.339 44.8347 162.678 44.0027 161.782 43.192C159.435 40.6747 156.619 39.416 153.334 39.416C150.006 39.416 147.168 40.6747 144.822 43.192C143.84 44.216 143.094 45.1547 142.582 46.008C142.454 46.264 142.39 46.456 142.39 46.584C142.39 46.6693 142.432 46.7547 142.518 46.84C142.646 46.8827 149.536 46.904 163.19 46.904ZM175.967 67C175.369 67 174.879 66.808 174.495 66.424C174.111 66.04 173.919 65.5707 173.919 65.016V22.264C173.919 21.7093 174.111 21.24 174.495 20.856C174.879 20.472 175.369 20.28 175.967 20.28C176.564 20.28 177.055 20.472 177.439 20.856C177.823 21.24 178.015 21.7093 178.015 22.264V65.016C178.015 65.5707 177.823 66.04 177.439 66.424C177.055 66.808 176.564 67 175.967 67ZM186.403 75.96C185.805 75.96 185.315 75.768 184.931 75.384C184.589 75.0427 184.419 74.5947 184.419 74.04V38.328C184.419 37.7733 184.589 37.304 184.931 36.92C185.315 36.536 185.805 36.344 186.403 36.344C187 36.344 187.491 36.536 187.875 36.92C188.259 37.304 188.451 37.7733 188.451 38.328V40.184C188.451 40.568 188.579 40.76 188.835 40.76C189.005 40.76 189.155 40.6747 189.283 40.504C190.563 38.9253 192.205 37.7093 194.211 36.856C196.259 36.0027 198.392 35.576 200.611 35.576C205.091 35.576 208.909 37.1547 212.067 40.312C215.224 43.4693 216.803 47.288 216.803 51.768C216.803 56.248 215.203 60.0453 212.003 63.16C208.803 66.2747 204.963 67.832 200.483 67.832C195.96 67.832 192.141 66.1253 189.027 62.712C188.984 62.6267 188.92 62.584 188.835 62.584H188.771C188.557 62.584 188.451 62.7547 188.451 63.096V74.04C188.451 74.5947 188.259 75.0427 187.875 75.384C187.491 75.768 187 75.96 186.403 75.96ZM200.483 63.992C203.853 63.992 206.733 62.7973 209.123 60.408C211.512 57.976 212.707 55.096 212.707 51.768C212.707 48.44 211.512 45.56 209.123 43.128C206.776 40.6533 203.939 39.416 200.611 39.416C197.283 39.416 194.424 40.6533 192.035 43.128C189.688 45.56 188.515 48.44 188.515 51.768C188.515 55.096 189.667 57.976 191.971 60.408C194.317 62.7973 197.155 63.992 200.483 63.992ZM237.084 67.832C232.604 67.832 228.785 66.2533 225.628 63.096C222.47 59.9387 220.892 56.12 220.892 51.64C220.892 47.16 222.47 43.3627 225.628 40.248C228.785 37.1333 232.604 35.576 237.084 35.576C241.564 35.576 245.382 37.1333 248.54 40.248C250.801 42.5093 252.145 45.24 252.572 48.44L252.636 48.888C252.636 49.272 252.529 49.72 252.316 50.232C252.102 50.744 251.548 51 250.652 51H226.14C225.713 51 225.436 51.0853 225.308 51.256C225.18 51.384 225.116 51.5973 225.116 51.896V52.216C225.372 55.416 226.545 58.04 228.636 60.088C231.238 62.6907 234.054 63.992 237.084 63.992C238.705 63.992 240.262 63.6507 241.756 62.968C243.292 62.2427 244.444 61.4107 245.212 60.472C246.236 59.192 247.089 58.552 247.772 58.552C248.156 58.552 248.582 58.68 249.052 58.936C249.649 59.4053 249.948 59.96 249.948 60.6C249.948 61.1547 249.734 61.688 249.308 62.2C246.108 65.9547 242.033 67.832 237.084 67.832ZM246.94 46.904C247.58 46.904 247.9 46.776 247.9 46.52C247.9 46.3067 247.772 46.0507 247.516 45.752V45.688C247.089 44.8347 246.428 44.0027 245.532 43.192C243.185 40.6747 240.369 39.416 237.084 39.416C233.756 39.416 230.918 40.6747 228.572 43.192C227.59 44.216 226.844 45.1547 226.332 46.008C226.204 46.264 226.14 46.456 226.14 46.584C226.14 46.6693 226.182 46.7547 226.268 46.84C226.396 46.8827 233.286 46.904 246.94 46.904ZM259.717 67C259.119 67 258.629 66.8293 258.245 66.488C257.861 66.104 257.669 65.6347 257.669 65.08V38.328C257.669 37.7733 257.861 37.304 258.245 36.92C258.629 36.536 259.119 36.344 259.717 36.344C260.314 36.344 260.805 36.536 261.189 36.92C261.615 37.304 261.829 37.7733 261.829 38.328V40.312C261.829 40.568 261.893 40.696 262.021 40.696C262.149 40.696 262.277 40.632 262.405 40.504C262.917 39.864 263.578 39.16 264.389 38.392C265.199 37.624 265.925 37.048 266.565 36.664C266.906 36.4933 267.29 36.408 267.717 36.408C267.93 36.408 268.271 36.4507 268.741 36.536C269.21 36.5787 269.615 36.8773 269.957 37.432C269.957 37.4747 269.978 37.496 270.021 37.496C270.191 37.7093 270.277 38.0933 270.277 38.648C270.277 38.7333 270.255 38.9467 270.213 39.288C270.213 39.6293 269.978 39.9707 269.509 40.312C269.039 40.6533 268.591 40.9733 268.165 41.272C266.202 42.4667 264.645 43.7467 263.493 45.112C262.383 46.4347 261.829 48.632 261.829 51.704L261.765 65.08C261.765 65.6347 261.573 66.104 261.189 66.488C260.805 66.8293 260.314 67 259.717 67Z" fill="black"/>
<path d="M287.198 67.832C284.553 67.832 281.908 67.2773 279.262 66.168C276.617 65.0587 274.334 63.3947 272.414 61.176C271.902 60.4933 271.646 59.8747 271.646 59.32C271.646 58.3813 272.116 57.8267 273.054 57.656H273.246C273.886 57.656 274.612 58.0187 275.422 58.744C276.361 59.6827 277.214 60.4507 277.982 61.048C280.372 62.968 283.444 63.928 287.198 63.928C290.74 63.928 293.684 62.776 296.03 60.472C298.42 58.1253 299.614 55.1173 299.614 51.448C299.614 47.7787 298.398 44.8987 295.966 42.808C293.534 40.6747 290.612 39.608 287.198 39.608C285.406 39.608 283.678 39.736 282.014 39.992C279.881 40.376 278.132 40.76 276.766 41.144C276.084 41.3573 275.444 41.464 274.846 41.464C274.42 41.464 274.014 41.272 273.63 40.888C273.246 40.504 273.054 40.0987 273.054 39.672C273.054 39.416 273.353 38.2213 273.95 36.088L277.15 24.696C277.577 23.032 277.833 22.0507 277.918 21.752C278.004 21.4107 278.174 21.0907 278.43 20.792C278.686 20.4507 279.156 20.28 279.838 20.28H298.398C298.953 20.28 299.422 20.472 299.806 20.856C300.19 21.24 300.382 21.7307 300.382 22.328C300.382 22.9253 300.19 23.416 299.806 23.8C299.422 24.184 298.953 24.376 298.398 24.376H282.718C282.292 24.376 281.95 24.4613 281.694 24.632C281.438 24.8027 281.225 25.144 281.054 25.656L278.942 32.44C278.302 34.488 277.982 35.6827 277.982 36.024C277.982 36.5787 278.217 36.856 278.686 36.856C278.9 36.856 279.156 36.792 279.454 36.664C281.972 35.896 284.553 35.512 287.198 35.512C291.764 35.512 295.604 37.0053 298.718 39.992C301.876 42.936 303.454 46.7547 303.454 51.448C303.454 56.184 301.876 60.1093 298.718 63.224C295.604 66.296 291.764 67.832 287.198 67.832Z" fill="white"/>
</svg>
