<svg width="27" height="27" fill="none" xmlns="http://www.w3.org/2000/svg"><path d="M1 12 13.408 1M13.408 1 17.1 4.082M17 4V2M1 12h4M5 12v14" stroke="#000" stroke-width=".5" stroke-linecap="round"/><path d="M22 26v-7.22c-.59-1.318-2.318-2.929-4.507-.595l-2.066 3.983h-3.515c-.67 0-1.664 1.568 0 2.415h4.722l1.556-2.666" stroke="#2E2E2E" stroke-width=".5" stroke-linecap="round"/><circle cx="19.5" cy="14.5" r="2.25" stroke="#2E2E2E" stroke-width=".5"/><path d="M17 2h4M21 2v5M21 7l5 5M26 12h-4M22 12v14M7 19l2 7M9 26h7" stroke="#000" stroke-width=".5" stroke-linecap="round"/></svg>