<svg width="493" height="499" viewBox="0 0 493 499" fill="none" xmlns="http://www.w3.org/2000/svg">
<g clip-path="url(#clip0_64_152)">
<rect width="493" height="499" rx="246.5" fill="#98C3CC"/>
<path d="M276.5 350.5L225 343L56 384L47 450L12 619.5H542.5L482 356.5L356.5 350.5L309.5 356.5L276.5 350.5Z" fill="white"/>
<path d="M179.74 112.869C256.508 39.5909 332.715 77.9746 349.851 125.955C360.755 156.488 354.213 149.945 352.032 219.734C350.287 275.565 320.772 301.154 306.233 306.97L218.996 320.056C234.699 431.718 223.358 517.791 214.635 546.87C203.003 536.692 177.123 505.869 166.655 463.995C156.186 422.122 169.562 343.319 177.559 309.151C135.686 228.894 161.566 144.856 179.74 112.869Z" fill="#51331D"/>
<path d="M201.549 182.658C218.996 151.253 277.153 117.231 304.051 104.146C342.435 112.869 343.307 189.201 338.946 226.276C334.41 241.396 322.536 267.208 304.051 282.201V341.086C293.147 378.94 236.443 365.076 232.081 341.086V282.111C209.465 269.206 202.041 248.994 201.549 237.181C187.736 242.27 160.111 242.851 160.111 204.467C160.111 166.083 187.736 173.935 201.549 182.658Z" fill="#EEDBCF"/>
<path d="M306.5 402L275 351L251.5 399L224.5 375.5L219 320L231.5 318.5L275 351L304.5 316L354.5 350L306.5 402Z" fill="#EAEAEA"/>
<path d="M336.764 169.573C362.935 171.754 371.658 213.191 334.583 228.457L336.764 169.573Z" fill="#DFC7B8"/>
<path d="M232 283.527C244.364 304.589 276.073 329.526 304 281C296 288.582 270.4 303.747 232 283.527Z" fill="#DFC7B8"/>
<path d="M177.557 311.332C168.834 306.97 199.803 311.331 201.548 311.331C208.091 311.332 223.357 317.874 221.176 320.055C221.176 321.509 220.739 324.417 218.995 324.417" stroke="#65A5F0"/>
<path d="M256.256 390.602L272.949 352.079C273.597 350.584 275.665 350.449 276.501 351.848L298.759 389.087C299.541 390.395 298.631 392.062 297.108 392.112L293.5 392.231L315.938 616.379C315.978 616.783 315.895 617.19 315.698 617.546L281.15 680.016C280.411 681.353 278.507 681.401 277.701 680.104L238.859 617.578C238.626 617.203 238.524 616.762 238.568 616.323L261 393.302L258.157 393.396C256.69 393.444 255.672 391.949 256.256 390.602Z" fill="#BECECB"/>
</g>
<defs>
<clipPath id="clip0_64_152">
<rect width="493" height="499" rx="246.5" fill="white"/>
</clipPath>
</defs>
</svg>
