<svg width="493" height="499" viewBox="0 0 493 499" fill="none" xmlns="http://www.w3.org/2000/svg">
<g clip-path="url(#clip0_64_140)">
<rect width="493" height="499" rx="246.5" fill="#98C3CC"/>
<path d="M243.152 178.826L165.798 187.788L249.5 264L238.107 343.296L150 346V167.52C190.253 75.5754 225.77 86.3925 275.494 86.3924C336.582 86.3924 354.421 160.308 356 202.675V346L282.598 343.296V329.775L275.494 220.5L308.644 213.492L275.494 208.083L243.152 178.826Z" fill="#583E27"/>
<path d="M285.019 181.198C244.706 176.456 247.325 157.856 242.582 157.856L161.709 169.341C156.966 210.445 163.131 291.704 225.735 287.91L228.107 321.109C244.706 340.079 275.534 335.337 285.019 318.737V230.997C297.667 232.578 322.013 228.151 318.218 197.798C314.424 167.444 294.505 174.084 285.019 181.198Z" fill="#EEDBCF"/>
<path d="M287.391 204.912L294.505 196.612M301.619 188.312L294.505 196.612M294.505 196.612V212.026" stroke="black" stroke-width="0.69" stroke-linecap="round"/>
<path d="M261.108 272.938C261.108 272.938 242.021 284.726 225.741 287.533C226.303 293.708 226.864 300.445 226.864 300.445C226.864 300.445 248.758 289.217 261.108 272.938Z" fill="#DFC7B8"/>
<path d="M160.621 184.802L157.814 163.47L242.021 134.84L265.037 170.206L250.441 178.065L244.266 170.206V179.75H231.916L227.986 174.136V182.556L210.584 184.802L208.899 181.434L205.531 184.802H201.04L196.549 178.065V184.802H177.463L175.217 181.434V184.802H160.621Z" fill="#583E27"/>
<path d="M264.5 330.5L213 323L44 364L35 430L0 599.5H530.5L470 336.5L344.5 330.5L297.5 336.5L264.5 330.5Z" fill="white"/>
<path d="M305.5 379L263 331L233.5 379L178 331L226.5 303L263 331L285.5 304L342.5 330L305.5 379Z" fill="#EAEAEA"/>
<path d="M244.256 370.602L260.949 332.079C261.597 330.584 263.665 330.449 264.501 331.848L286.759 369.087C287.541 370.395 286.631 372.062 285.108 372.112L281.5 372.231L303.938 596.379C303.978 596.783 303.895 597.19 303.698 597.546L269.15 660.016C268.411 661.353 266.507 661.401 265.701 660.104L226.859 597.578C226.626 597.203 226.524 596.762 226.568 596.323L249 373.302L246.157 373.396C244.69 373.444 243.672 371.949 244.256 370.602Z" fill="#6DA9B1"/>
</g>
<defs>
<clipPath id="clip0_64_140">
<rect width="493" height="499" rx="246.5" fill="white"/>
</clipPath>
</defs>
</svg>
