<svg width="493" height="499" viewBox="0 0 493 499" fill="none" xmlns="http://www.w3.org/2000/svg">
<g clip-path="url(#clip0_64_130)">
<rect width="493" height="499" rx="246.5" fill="#98C3CC"/>
<path d="M290.793 131.36C253.205 117.102 240.028 174.565 234.087 205.888L238.623 251.253V320.921L214.321 332.262L151.134 366L151.134 246.393C155.454 219.93 167.984 159.227 183.537 128.12C199.091 97.0122 248.344 100.037 271.027 105.437C347.499 101.549 360.137 192.387 356.896 238.292L360.5 362.5L288.849 327.402L285.609 283.657C314.124 283.657 321.252 270.695 327.733 251.253C329.893 216.149 328.381 145.618 290.793 131.36Z" fill="#CAAA8C"/>
<path d="M227.282 204.268C241.54 145.941 261.306 126.499 274.268 126.499C340.695 131.36 330.974 205.888 330.974 244.772C330.974 275.88 302.891 284.737 288.849 285.277C288.849 297.698 289.173 323.189 290.469 325.781C291.766 328.373 298.57 330.102 301.811 330.642C305.591 343.603 306.347 370.174 279.128 372.766C251.983 375.352 223.656 348.072 212.789 333.997C212.588 334.075 212.548 334.035 212.701 333.882C212.73 333.92 212.76 333.958 212.789 333.997C214.717 333.244 231.415 321.549 233.763 293.378C236.355 262.27 220.802 239.372 212.701 231.811C191.638 243.152 154.374 204.268 178.677 188.066C202.98 171.864 214.321 197.787 217.561 202.648C220.154 206.536 225.122 205.348 227.282 204.268Z" fill="#EEDBCF"/>
<path d="M188.397 192.927L206.219 210.749M209.46 213.989L206.219 210.749M206.219 210.749C203.519 211.829 197.794 215.285 196.498 220.47" stroke="black" stroke-linecap="round"/>
<path d="M289 313C271.222 304.158 254.926 281.316 249 271C256.111 276.305 278.63 283.526 289 286.474V313Z" fill="#DFC7B8"/>
<path d="M266.5 347.5L215 340L46 381L37 447L2 616.5H532.5L472 353.5L346.5 347.5L299.5 353.5L266.5 347.5Z" fill="white"/>
<path d="M307.5 396L265 348L235.5 396L180 348L226 317L265 348L291 318L344.5 347L307.5 396Z" fill="#EAEAEA"/>
<path d="M246.256 387.602L262.949 349.079C263.597 347.584 265.665 347.449 266.501 348.848L288.759 386.087C289.541 387.395 288.631 389.062 287.108 389.112L283.5 389.231L305.938 613.379C305.978 613.783 305.895 614.19 305.698 614.546L271.15 677.016C270.411 678.353 268.507 678.401 267.701 677.104L228.859 614.578C228.626 614.203 228.524 613.762 228.568 613.323L251 390.302L248.157 390.396C246.69 390.444 245.672 388.949 246.256 387.602Z" fill="#9AB1E6"/>
</g>
<defs>
<clipPath id="clip0_64_130">
<rect width="493" height="499" rx="246.5" fill="white"/>
</clipPath>
</defs>
</svg>
